<?xml version="1.0" encoding="UTF-8"?>
<svg id="Layer_1" data-name="Layer 1" xmlns="http://www.w3.org/2000/svg" viewBox="0 0 1920 1920">
  <defs>
    <style>
      .cls-1 {
        fill: #f7f8ff;
      }

      .cls-1, .cls-2, .cls-3 {
        stroke: #f7f8ff;
        stroke-miterlimit: 10;
      }

      .cls-2 {
        stroke-width: 60px;
      }

      .cls-3 {
        fill: none;
        stroke-width: 28px;
      }
    </style>
  </defs>
  <path class="cls-2" d="M292.48,1573.84C1368.62,636.25,1605.69,414.3,1605.69,414.3"/>
  <polygon class="cls-3" points="1006.35 753.1 1006.35 276.7 738.32 38.5 470.28 276.7 470.28 753.1 738.32 991.3 1006.35 753.1"/>
  <polygon class="cls-3" points="1729.79 1454.34 1729.79 977.93 1461.75 739.73 1193.72 977.93 1193.72 1454.34 1461.75 1692.54 1729.79 1454.34"/>
  <line class="cls-3" x1="1011.04" y1="1863.71" x2="1011.06" y2="1370.91"/>
  <polygon class="cls-3" points="1108.47 1750.73 1108.9 1259.12 1011.06 1136.57 914.07 1259.12 913.65 1752.2 1010.05 1881.5 1108.47 1750.73"/>
  <g>
    <path class="cls-1" d="M1450.51,1178.85v-12.19s0,0,0,0l2.11-401.67c0-5.28,3.62-9.55,8.11-9.53h1.87c4.48.03,8.12,4.32,8.13,9.6,0,0,1.99,367.01,2.18,401.68h.01s.01,12.26.01,12.26c132.03,1.72,238.8,16.59,238.8,61.83,0,27.6-38.59,40.72-92.02,45.32-39.12,3.37-41.82,4.01-102.7,5.67l.86-1.01c51.48-6,59.36-11.26,100.3-19.12,35.01-6.72,69.01-21.31,69-31.46-.02-13.2-123.27-35.86-225.02-36.53-102.9-.68-230.48,20.95-226.15,37.21,4.59,15.07,108.83,45.16,169.2,49.17l.22.76c-131.24-4.26-187.4-15.41-193.12-49.52-4.61-19.67,19.97-35.05,62.08-45.63,0,0-.29.52,25.06-5.52,0,0,94.55-11.34,151.09-11.32Z"/>
    <path class="cls-1" d="M1472.74,1304.99v11.68s0,0,0,0l-2.21,384.76c0,5.06-3.63,9.15-8.11,9.13h-1.87c-4.48-.02-8.12-4.14-8.13-9.2,0,0-1.89-351.57-2.07-384.78h-.01s-.01-11.74-.01-11.74c-132.03-1.61-238.79-15.83-238.79-59.17,0-26.44,38.6-39.01,92.04-43.43,39.12-3.24,41.82-3.85,102.7-5.46l-.86.97c-51.48,5.77-59.36,10.8-100.3,18.34-35.01,6.45-69.01,20.43-69,30.15.01,12.64,123.26,34.31,225.01,34.93,102.9.62,230.49-20.13,226.16-35.71-4.59-14.43-108.82-43.23-169.19-47.06l-.22-.73c131.24,4.05,187.39,14.71,193.11,47.38,4.61,18.84-19.98,33.58-62.09,43.73,0,0,.29-.5-25.07,5.29,0,0-94.55,10.89-151.09,10.89Z"/>
    <path class="cls-1" d="M1487.3,1193.65l6.52-6.51h.01s216.55-212.68,216.55-212.68c2.82-2.82,7.68-2.53,10.84.64l1.32,1.32c3.16,3.17,3.44,8.03.62,10.86,0,0-195.1,197.11-213.53,215.73h0s-6.55,6.55-6.55,6.55c92.58,94.13,160.23,177.44,136.01,201.57-14.78,14.72-49.13-5.53-89.43-40.81-29.51-25.82-31.77-27.39-75.77-69.48l1.15.07c39.67,33.14,48.06,35.9,81.27,60.61,28.39,21.13,60.28,37.36,65.71,31.94,7.06-7.05-68.1-106.15-139.81-178.34-72.51-73.01-174.44-151.55-180.09-139.82-4.82,11.27,52.89,100.92,93.5,145.68l-.25.56c-90.66-94.93-124.46-140.52-110.26-162.75,7.27-13.74,32.91-4.59,68.4,19.5,0,0-.48.07,20.71,14.75,0,0,73.03,60.7,113.06,100.63Z"/>
    <path class="cls-1" d="M1419.55,1210.25l-6.51-6.52h.01s-212.69-216.56-212.69-216.56c-2.82-2.82-2.53-7.68.64-10.84l1.32-1.32c3.17-3.16,8.03-3.44,10.86-.62,0,0,197.11,195.1,215.73,213.53h0s6.55,6.55,6.55,6.55c94.13-92.58,177.44-160.23,201.57-136.01,14.72,14.78-5.53,49.13-40.81,89.43-25.82,29.51-27.39,31.77-69.48,75.77l.07-1.15c33.14-39.67,35.9-48.06,60.61-81.27,21.13-28.39,37.36-60.28,31.94-65.71-7.05-7.06-106.15,68.1-178.34,139.81-73.01,72.51-151.55,174.44-139.82,180.09,11.27,4.82,100.92-52.89,145.68-93.5l.56.25c-94.93,90.66-140.52,124.46-162.75,110.26-13.74-7.27-4.59-32.91,19.5-68.4,0,0,.07.48,14.75-20.71,0,0,60.7-73.03,100.63-113.06Z"/>
  </g>
  <g>
    <path class="cls-1" d="M726.42,479.67v-12.19s0,0,0,0l2.11-401.67c0-5.28,3.62-9.55,8.11-9.53h1.87c4.48.03,8.12,4.32,8.13,9.6,0,0,1.99,367.01,2.18,401.68h.01s.01,12.26.01,12.26c132.03,1.72,238.8,16.59,238.8,61.83,0,27.6-38.59,40.72-92.02,45.32-39.12,3.37-41.82,4.01-102.7,5.67l.86-1.01c51.48-6,59.36-11.26,100.3-19.12,35.01-6.72,69.01-21.31,69-31.46-.02-13.2-123.27-35.86-225.02-36.53-102.9-.68-230.48,20.95-226.15,37.21,4.59,15.07,108.83,45.16,169.2,49.17l.22.76c-131.24-4.26-187.4-15.41-193.12-49.52-4.61-19.67,19.97-35.05,62.08-45.63,0,0-.29.52,25.06-5.52,0,0,94.55-11.34,151.09-11.32Z"/>
    <path class="cls-1" d="M748.66,605.8v11.68s0,0,0,0l-2.21,384.76c0,5.06-3.63,9.15-8.11,9.13h-1.87c-4.48-.02-8.12-4.14-8.13-9.2,0,0-1.89-351.57-2.07-384.78h-.01s-.01-11.74-.01-11.74c-132.03-1.61-238.79-15.83-238.79-59.17,0-26.44,38.6-39.01,92.04-43.43,39.12-3.24,41.82-3.85,102.7-5.46l-.86.97c-51.48,5.77-59.36,10.8-100.3,18.34-35.01,6.45-69.01,20.43-69,30.15.01,12.64,123.26,34.31,225.01,34.93,102.9.62,230.49-20.13,226.16-35.71-4.59-14.43-108.82-43.23-169.19-47.06l-.22-.73c131.24,4.05,187.39,14.71,193.11,47.38,4.61,18.84-19.98,33.58-62.09,43.73,0,0,.29-.5-25.07,5.29,0,0-94.55,10.89-151.09,10.89Z"/>
    <path class="cls-1" d="M763.22,494.46l6.52-6.51h.01s216.55-212.68,216.55-212.68c2.82-2.82,7.68-2.53,10.84.64l1.32,1.32c3.16,3.17,3.44,8.03.62,10.86,0,0-195.1,197.11-213.53,215.73h0s-6.55,6.55-6.55,6.55c92.58,94.13,160.23,177.44,136.01,201.57-14.78,14.72-49.13-5.53-89.43-40.81-29.51-25.82-31.77-27.39-75.77-69.48l1.15.07c39.67,33.14,48.06,35.9,81.27,60.61,28.39,21.13,60.28,37.36,65.71,31.94,7.06-7.05-68.1-106.15-139.81-178.34-72.51-73.01-174.44-151.55-180.09-139.82-4.82,11.27,52.89,100.92,93.5,145.68l-.25.56c-90.66-94.93-124.46-140.52-110.26-162.75,7.27-13.74,32.91-4.59,68.4,19.5,0,0-.48.07,20.71,14.75,0,0,73.03,60.7,113.06,100.63Z"/>
    <path class="cls-1" d="M695.46,511.06l-6.51-6.52h.01s-212.69-216.56-212.69-216.56c-2.82-2.82-2.53-7.68.64-10.84l1.32-1.32c3.17-3.16,8.03-3.44,10.86-.62,0,0,197.11,195.1,215.73,213.53h0s6.55,6.55,6.55,6.55c94.13-92.58,177.44-160.23,201.57-136.01,14.72,14.78-5.53,49.13-40.81,89.43-25.82,29.51-27.39,31.77-69.48,75.77l.07-1.15c33.14-39.67,35.9-48.06,60.61-81.27,21.13-28.39,37.36-60.28,31.94-65.71-7.05-7.06-106.15,68.1-178.34,139.81-73.01,72.51-151.55,174.44-139.82,180.09,11.27,4.82,100.92-52.89,145.68-93.5l.56.25c-94.93,90.66-140.52,124.46-162.75,110.26-13.74-7.27-4.59-32.91,19.5-68.4,0,0,.07.48,14.75-20.71,0,0,60.7-73.03,100.63-113.06Z"/>
  </g>
  <polyline class="cls-3" points="911.01 1247.26 1010.85 1377.85 1111.57 1247.26"/>
  <line class="cls-3" x1="290.24" y1="1161.76" x2="290.26" y2="669.68"/>
  <polygon class="cls-3" points="387.67 1049.5 388.1 557.88 290.26 435.34 193.27 557.88 192.84 1050.97 289.25 1180.27 387.67 1049.5"/>
  <polyline class="cls-3" points="190.21 543.16 290.76 673.75 392.2 543.16"/>
</svg>